 <svg width="204" height="135" viewBox="0 0 204 135" fill="none" xmlns="http://www.w3.org/2000/svg">
    <mask id="mask0_129_7070" style="mask-type:luminance" maskUnits="userSpaceOnUse" x="0" y="64" width="204" height="71">
      <path d="M11.4639 64.7324H0L0.214139 65.7981L1.68324 73.1137V126.611L0.214139 133.927L0 134.995H12.5521L12.3379 133.929L10.8688 126.614V73.1162L12.3379 65.8006L12.5521 64.7349H11.4639V64.7324ZM52.6758 74.3338C52.7032 74.0972 52.9024 73.918 53.1414 73.918C53.3805 73.918 53.5797 74.0972 53.6071 74.3338L57.611 110.132H48.6694L52.6758 74.3338ZM62.4167 64.7324H42.8901L42.9773 65.701L43.6272 73.0141L37.6412 126.517L35.3504 133.837L34.9894 134.993H47.5514L47.4643 134.024L46.8144 126.708L47.6411 119.311H58.6369L59.4635 126.708L58.8137 134.024L58.7265 134.993H71.2885L70.9275 133.837L68.6367 126.517L62.6507 73.0141L63.3006 65.701L63.3878 64.7324H62.4142H62.4167ZM82.8247 64.7324H71.3607L71.5749 65.7981L73.044 73.1137V126.611L71.5749 133.927L71.3607 134.993H83.9128L83.6987 133.927L82.2296 126.609V73.1112L83.6987 65.7956L83.9128 64.7299H82.8247V64.7324ZM96.2681 73.9155H102.212C102.528 73.9155 102.784 74.1719 102.784 74.4882V95.4714C102.784 95.6307 102.717 95.7851 102.6 95.8922L96.2681 101.726V73.913V73.9155ZM86.4874 64.7324H85.3993L85.6135 65.7981L87.0826 73.1137V126.611L85.6135 133.929L85.3993 134.995H97.9514L97.7372 133.929L96.2681 126.611V114.724L109.473 102.553C111.059 101.091 111.97 99.0146 111.97 96.8558V72.4763C111.97 70.4071 111.163 68.4624 109.702 66.9983C108.238 65.5342 106.293 64.7299 104.224 64.7299H86.4899L86.4874 64.7324ZM126.539 74.3338C126.566 74.0972 126.766 73.918 127.005 73.918C127.244 73.918 127.443 74.0972 127.47 74.3338L131.477 110.132H122.535L126.541 74.3338H126.539ZM136.28 64.7324H116.753L116.84 65.701L117.49 73.0141L111.504 126.517L109.214 133.837L108.853 134.993H121.415L121.327 134.024L120.678 126.708L121.504 119.311H132.5L133.327 126.708L132.677 134.024L132.59 134.993H145.152L144.791 133.837L142.5 126.517L136.514 73.0141L137.164 65.701L137.251 64.7324H136.277H136.28ZM171.969 64.7324H160.62L160.707 65.701L161.357 73.0141L156.245 118.691L151.133 73.0141L151.783 65.701L151.87 64.7324H139.308L139.669 65.8877L141.957 73.2083L147.943 126.708L147.293 134.024L147.208 134.993H165.278L165.194 134.024L164.544 126.708L170.53 73.2083L172.818 65.8877L173.179 64.7324H171.966H171.969ZM184.548 74.3338C184.576 74.0972 184.775 73.918 185.014 73.918C185.253 73.918 185.452 74.0972 185.48 74.3338L189.484 110.132H180.542L184.548 74.3338ZM194.292 64.7324H174.765L174.852 65.701L175.502 73.0141L169.516 126.517L167.228 133.837L166.867 134.993H179.429L179.344 134.024L178.694 126.708L179.521 119.311H190.517L191.344 126.708L190.694 134.024L190.607 134.993H203.169L202.808 133.837L200.519 126.517L194.533 73.0141L195.183 65.701L195.27 64.7324H194.297H194.292ZM37.818 64.7324H14.1606L14.0112 65.437L12.1063 74.3537L11.7976 75.8029L13.2219 75.397L16.312 74.5156C17.7039 74.1197 19.1406 73.918 20.5873 73.918C21.2347 73.918 21.7601 74.4434 21.7601 75.0908V126.616L20.291 133.934L20.0768 135H32.6289L32.4147 133.934L30.9456 126.616V75.0908C30.9456 74.4458 31.471 73.918 32.1184 73.918C33.5651 73.918 35.0018 74.1197 36.3938 74.5156L39.4838 75.397L40.9081 75.8029L40.5993 74.3537L38.6945 65.437L38.5426 64.7324H37.823H37.818Z" fill="white" />
    </mask>
    <g mask="url(#mask0_129_7070)">
      <path d="M203.166 64.7324H0V134.995H203.166V64.7324Z" fill="url(#paint0_linear_129_7070)" />
    </g>
    <mask id="mask1_129_7070" style="mask-type:luminance" maskUnits="userSpaceOnUse" x="0" y="0" width="204" height="135">
      <path d="M203.166 0.00239563H0V134.995H203.166V0.00239563Z" fill="white" />
    </mask>
    <g mask="url(#mask1_129_7070)">
      <path d="M61.7591 73.0265L62.4164 65.6238H43.8635L44.5233 73.0265L38.5175 126.701L36.2018 134.104H46.5801L45.9202 126.701L46.8465 118.424H59.4359L60.3622 126.701L59.7048 134.104H70.0831L67.7674 126.701L61.7616 73.0265H61.7591ZM47.6732 111.021L51.7892 74.2342C51.8663 73.5469 52.4465 73.0265 53.1387 73.0265C53.8309 73.0265 54.4111 73.5469 54.4883 74.2342L58.6043 111.021H47.6707H47.6732ZM111.076 96.8583V72.4787C111.076 70.661 110.354 68.9156 109.066 67.6307C107.779 66.3459 106.036 65.6213 104.218 65.6213H86.4847L87.9712 73.0241V126.698L86.4847 134.101H96.863L95.3765 126.698V114.331L108.867 101.896C110.277 100.598 111.076 98.7681 111.076 96.8533M95.3765 73.0216H102.212C103.018 73.0216 103.676 73.6764 103.676 74.4857V95.4689C103.676 95.8772 103.504 96.2681 103.205 96.5445L95.379 103.758V73.0216H95.3765ZM9.97717 73.0216V126.696L11.4637 134.099H1.08789L2.57442 126.696V73.0216L1.08789 65.6188H11.4637L9.97717 73.0216ZM81.3379 73.0216V126.696L82.8244 134.099H72.4461L73.9327 126.696V73.0216L72.4461 65.6188H82.8244L81.3379 73.0216ZM135.62 73.0216L136.28 65.6188H117.727L118.387 73.0216L112.381 126.696L110.065 134.099H120.443L119.786 126.696L120.712 118.419H133.302L134.228 126.696L133.571 134.099H143.949L141.633 126.696L135.627 73.0216H135.62ZM121.534 111.016L125.65 74.2292C125.727 73.542 126.307 73.0216 126.999 73.0216C127.692 73.0216 128.272 73.542 128.349 74.2292L132.465 111.016H121.531H121.534ZM193.632 73.0216L194.289 65.6188H175.736L176.396 73.0216L170.39 126.696L168.074 134.099H178.453L177.793 126.696L178.719 118.419H191.308L192.235 126.696L191.577 134.099H201.956L199.64 126.696L193.634 73.0216H193.632ZM179.548 111.016L183.664 74.2292C183.741 73.542 184.322 73.0216 185.014 73.0216C185.706 73.0216 186.286 73.542 186.363 74.2292L190.479 111.016H179.546H179.548ZM163.65 126.698L164.309 134.101H148.184L148.844 126.698L142.838 73.0241L140.523 65.6213H150.901L150.244 73.0241L155.634 121.203C155.717 121.935 156.782 121.935 156.864 121.203L162.255 73.0241L161.595 65.6213H171.974L169.658 73.0241L163.652 126.698H163.65ZM36.6326 73.6565C35.1635 73.2382 33.6421 73.0241 32.1157 73.0241C30.9778 73.0241 30.054 73.9478 30.054 75.0858V126.698L31.5405 134.101H21.1622L22.6487 126.698V75.0858C22.6487 73.9453 21.725 73.0241 20.587 73.0241C19.0582 73.0241 17.5393 73.2357 16.0677 73.6565L12.9776 74.538L14.8825 65.6213H37.8203L39.7251 74.538L36.635 73.6565H36.6326Z" fill="white" />
    </g>
    <mask id="mask2_129_7070" style="mask-type:luminance" maskUnits="userSpaceOnUse" x="0" y="0" width="204" height="50">
      <path d="M77.5708 38.6223C77.9268 37.9799 78.4971 37.696 79.3511 37.696C79.7794 37.696 80.0633 37.7682 80.3496 37.9102L81.9158 46.6749H79.0648L77.5683 38.6223H77.5708ZM122.816 37.9102C123.103 37.7682 123.387 37.696 123.815 37.696C124.672 37.696 125.239 37.9799 125.598 38.6223L124.101 46.6749H121.25L122.816 37.9102ZM83.4123 36.3415C83.8406 35.8435 84.4805 35.4874 85.4068 35.4874C85.8351 35.4874 86.1911 35.5596 86.5472 35.7737L88.3276 46.6749H85.2624L83.4098 36.344L83.4123 36.3415ZM116.616 35.7713C116.972 35.5571 117.329 35.4849 117.757 35.4849C118.683 35.4849 119.325 35.841 119.751 36.339L117.899 46.67H114.836L116.616 35.7688V35.7713ZM89.326 32.0661C90.2523 31.5681 91.0367 31.354 92.1771 31.354C92.8195 31.354 93.4594 31.4262 94.1716 31.5681L95.5959 46.6749H91.6069L89.326 32.0686V32.0661ZM108.992 31.5681C109.704 31.4262 110.347 31.354 110.987 31.354C112.127 31.354 112.911 31.5681 113.838 32.0661L111.557 46.6724H107.565L108.99 31.5657L108.992 31.5681ZM97.4484 30.9979C98.7308 30.3555 100.299 30.0717 101.582 30.0717C102.864 30.0717 104.433 30.3555 105.715 30.9979L104.361 46.6749H98.803L97.4484 30.9979ZM75.2875 31.2818C77.5683 29.4292 81.2012 27.7908 84.9063 27.3625L85.1927 29.4292C85.2649 29.9272 85.4068 30.2136 85.8351 30.6419L85.977 31.852C82.1997 32.6364 78.7087 33.7768 76.0021 35.2733L75.2899 31.2818H75.2875ZM117.187 31.852L117.329 30.6419C117.757 30.2136 117.899 29.9297 117.971 29.4292L118.257 27.3625C121.962 27.7908 125.595 29.4292 127.876 31.2818L127.164 35.2733C124.455 33.7768 120.964 32.6364 117.189 31.852M87.832 23.6574C87.7598 23.0872 88.1159 22.8034 88.6861 22.517C91.323 21.1625 96.8085 20.3806 101.584 20.3806C106.36 20.3806 111.846 21.1649 114.482 22.517C115.053 22.8034 115.409 23.0872 115.337 23.6574L114.697 28.2888C110.349 27.2206 105.434 26.5782 101.584 26.5782C97.7348 26.5782 92.8195 27.2206 88.4745 28.2888L87.832 23.6574ZM100.8 11.0456C100.8 8.76478 99.3757 7.69657 99.3757 5.77181C99.3757 4.27532 100.302 3.27683 101.584 3.27683C102.867 3.27683 103.793 4.27532 103.793 5.77181C103.793 7.69657 102.369 8.76478 102.369 11.0456C102.369 13.8967 104.505 15.3209 107.854 15.3209C112.271 15.3209 115.62 12.826 116.689 12.826C117.045 12.826 117.331 13.1098 117.331 13.4684C117.331 14.4669 115.264 16.3194 114.694 19.168C111.345 17.9553 106.5 17.1013 101.582 17.1013C96.6641 17.1013 91.821 17.9553 88.472 19.168C87.9018 16.3169 85.8351 14.4644 85.8351 13.4684C85.8351 13.1123 86.1189 12.826 86.4775 12.826C87.5457 12.826 90.8947 15.3209 95.312 15.3209C98.661 15.3209 100.797 13.8967 100.797 11.0456M96.0241 5.55767C96.0241 8.40871 97.5206 9.83299 97.5206 10.9734C97.5206 11.6855 96.8782 12.0416 95.5959 12.0416C92.1746 12.0416 89.1841 9.54664 86.5472 9.54664C84.5527 9.54664 82.5557 10.9709 82.5557 13.4659C82.5557 16.1028 84.6922 16.3867 85.1927 20.7342C84.4083 21.3766 84.1244 22.0887 84.3386 23.4408L84.4108 23.8691C79.4233 24.8676 75.8602 26.506 73.7237 28.2863C72.4414 29.3545 71.9434 30.2808 71.9434 31.1374C71.9434 32.1359 72.6555 35.9107 73.0838 37.5516C73.3677 38.692 73.7262 39.5461 74.5081 40.0466L75.7904 46.6724H0V49.8796H203.166V46.6724H127.378L128.66 40.0466C129.445 39.5486 129.801 38.692 130.085 37.5516C130.513 35.9132 131.225 32.1359 131.225 31.1374C131.225 30.2833 130.727 29.357 129.445 28.2863C127.308 26.506 123.745 24.8651 118.755 23.8691L118.827 23.4408C119.042 22.0862 118.755 21.3741 117.971 20.7342C118.469 16.3867 120.608 16.1028 120.608 13.4659C120.608 10.9709 118.613 9.54664 116.616 9.54664C113.979 9.54664 110.987 12.0416 107.568 12.0416C106.285 12.0416 105.643 11.6855 105.643 10.9734C105.643 9.83299 107.139 8.40871 107.139 5.55767C107.139 2.13641 105.001 0 101.582 0C98.163 0 96.0241 2.13641 96.0241 5.55767Z" fill="white" />
    </mask>
    <g mask="url(#mask2_129_7070)">
      <path d="M203.166 0.00253296H0V49.8821H203.166V0.00253296Z" fill="url(#paint1_linear_129_7070)" />
    </g>
    <defs>
      <linearGradient id="paint0_linear_129_7070" x1="0.99901" y1="100.17" x2="204.165" y2="100.17" gradientUnits="userSpaceOnUse">
        <stop stop-color="#B27524" />
        <stop offset="0.18" stop-color="#FFC180" />
        <stop offset="0.34" stop-color="#DB9E53" />
        <stop offset="0.5" stop-color="#FFC180" />
        <stop offset="0.66" stop-color="#DB9E53" />
        <stop offset="0.82" stop-color="#FFC180" />
        <stop offset="1" stop-color="#B27524" />
      </linearGradient>
      <linearGradient id="paint1_linear_129_7070" x1="1.02391" y1="25.2884" x2="204.19" y2="25.2884" gradientUnits="userSpaceOnUse">
        <stop stop-color="#B07B2B" />
        <stop offset="0.18" stop-color="#FFC180" />
        <stop offset="0.34" stop-color="#DB9E53" />
        <stop offset="0.5" stop-color="#FFC180" />
        <stop offset="0.66" stop-color="#DB9E53" />
        <stop offset="0.82" stop-color="#FFC180" />
        <stop offset="1" stop-color="#B07B2B" />
      </linearGradient>
    </defs>
  </svg> 